<?xml version="1.0" standalone="no"?>
<!DOCTYPE svg PUBLIC "-//W3C//DTD SVG 20010904//EN"
 "http://www.w3.org/TR/2001/REC-SVG-20010904/DTD/svg10.dtd">
<svg version="1.0" xmlns="http://www.w3.org/2000/svg"
 width="512.000000pt" height="512.000000pt" viewBox="0 0 512.000000 512.000000"
 preserveAspectRatio="xMidYMid meet">
<metadata>
Created by potrace 1.11, written by Peter Selinger 2001-2013
</metadata>
<g transform="translate(0.000000,512.000000) scale(0.100000,-0.100000)"
fill="#000000" stroke="none">
<path d="M2365 5114 c-652 -67 -1179 -310 -1614 -745 -404 -404 -649 -904
-733 -1494 -19 -134 -16 -513 5 -655 69 -462 230 -850 504 -1212 95 -126 292
-330 413 -427 103 -84 248 -186 254 -180 2 2 15 186 30 409 37 563 43 624 67
681 12 27 25 49 29 49 4 0 76 -71 161 -157 100 -103 163 -176 179 -208 l25
-50 3 -487 3 -486 44 -16 45 -15 0 483 c0 523 -2 552 -56 638 -14 24 -99 116
-188 206 l-161 163 25 21 c49 41 130 69 328 113 111 25 205 45 210 45 5 0 74
-97 153 -217 188 -283 199 -287 339 -148 41 41 79 75 83 75 4 0 7 -337 7 -750
l0 -750 40 0 40 0 0 750 c0 413 3 750 8 750 4 0 41 -34 82 -75 43 -44 88 -79
105 -84 63 -17 77 -2 227 223 77 116 144 215 148 220 12 12 426 -82 480 -109
25 -13 56 -32 70 -43 l25 -21 -161 -163 c-89 -90 -174 -182 -188 -206 -54 -86
-56 -115 -56 -638 l0 -483 45 15 44 16 3 486 3 487 25 50 c16 32 79 105 179
208 85 86 157 157 161 157 4 0 17 -22 29 -49 24 -57 30 -118 67 -681 15 -223
28 -407 30 -409 6 -6 151 96 254 180 121 97 318 301 413 427 274 362 435 750
504 1212 21 142 24 521 5 655 -84 590 -329 1090 -733 1494 -395 394 -884 639
-1449 726 -101 15 -468 28 -555 19z m1021 -1579 c71 -42 84 -82 84 -267 0
-171 -5 -157 62 -172 56 -13 108 -75 122 -145 16 -84 -49 -179 -137 -202 l-47
-11 0 -132 c0 -152 -13 -209 -63 -283 -53 -77 -118 -112 -447 -245 l-305 -123
-95 0 -95 0 -305 123 c-329 133 -394 168 -447 245 -50 74 -63 131 -63 283 l0
132 -47 11 c-88 23 -153 118 -137 202 14 70 66 132 122 145 67 15 62 1 62 172
0 184 12 224 83 267 l42 25 784 0 784 0 43 -25z"/>
<path d="M2036 3084 c-24 -25 -26 -33 -26 -109 0 -68 4 -87 20 -108 42 -54
134 -41 160 22 7 19 11 58 8 102 -3 63 -7 74 -31 95 -39 34 -96 33 -131 -2z"/>
<path d="M2953 3086 c-24 -21 -28 -32 -31 -95 -3 -44 1 -83 8 -102 26 -63 118
-76 160 -22 16 21 20 40 20 108 0 76 -2 84 -26 109 -35 35 -92 36 -131 2z"/>
<path d="M2303 2520 c-38 -23 -53 -77 -32 -117 38 -70 250 -113 409 -83 77 15
152 52 169 83 22 41 5 96 -38 121 -33 19 -33 19 -103 -3 -92 -30 -209 -30
-292 -1 -72 25 -73 25 -113 0z"/>
</g>
</svg>
